# xmcd
#
# Track frame offsets:
#	150
#	22611
#	99542
#	128877
#	149427
#	182016
#	228168
#	262241
#	292008
#	311263
#
# Disc length: 4376 seconds
#
# Revision: 1
# Processed by: cddbd v1.5.2PL0 Copyright (c) Steve Scherf et al.
# Submitted via: CDmax 2.0
#
DISCID=8711160a
DTITLE=Eric Clapton - The Road To Osaka 1st Night (disc2)
DYEAR=2006
DGENRE=Blues
TTITLE0=After Midnight
TTITLE1=Little Queen of Spades
TTITLE2=Further on Up the Road
TTITLE3=Wonderful Tonight
TTITLE4=Layla
TTITLE5=Cocaine
TTITLE6=Crossroads
TTITLE7=Further on Up the Road
TTITLE8=Wonderful Tonight
TTITLE9=Anyday
EXTD=Eric Clapton\tguitar, vocals\nDoyle Bramhall II\tguitar\nDerek Trucks\tg
EXTD=uitar\nChris Stainton\tkeyboards\nTim Carmon\tkeyboards\nWillie Weeks\tb
EXTD=ass\nSteve Jordan\tdrums\nMichelle John\tbacking vocals\nSharon White\tb
EXTD=acking vocals\n\nRecorded live at Osaka Castle Hall, Osaka, Japan on Nov
EXTD=ember 11th, 2006 except for indicated
EXTT0=
EXTT1=
EXTT2=
EXTT3=
EXTT4=
EXTT5=
EXTT6=
EXTT7=Bonus track\n\nRehearsal on November 9th, 2006
EXTT8=Bonus track\n\nSame as track #8
EXTT9=Bonus track\n\nSame as track #8
PLAYORDER=
